<?xml version="1.0" encoding="UTF-8" standalone="no"?>
<!-- Created with Inkscape (http://www.inkscape.org/) -->

<svg
   xmlns:dc="http://purl.org/dc/elements/1.1/"
   xmlns:cc="http://creativecommons.org/ns#"
   xmlns:rdf="http://www.w3.org/1999/02/22-rdf-syntax-ns#"
   xmlns:svg="http://www.w3.org/2000/svg"
   xmlns="http://www.w3.org/2000/svg"
   xmlns:sodipodi="http://sodipodi.sourceforge.net/DTD/sodipodi-0.dtd"
   xmlns:inkscape="http://www.inkscape.org/namespaces/inkscape"
   width="744.09448819"
   height="1052.3622047"
   id="svg2"
   version="1.1"
   inkscape:version="0.48.4 r9939"
   sodipodi:docname="icons.svg">
  <defs
     id="defs4" />
  <sodipodi:namedview
     id="base"
     pagecolor="#ffffff"
     bordercolor="#666666"
     borderopacity="1.0"
     inkscape:pageopacity="0.0"
     inkscape:pageshadow="2"
     inkscape:zoom="0.24748737"
     inkscape:cx="-37.150509"
     inkscape:cy="584.29635"
     inkscape:document-units="px"
     inkscape:current-layer="layer1"
     showgrid="false"
     inkscape:window-width="917"
     inkscape:window-height="701"
     inkscape:window-x="785"
     inkscape:window-y="190"
     inkscape:window-maximized="0"
     showguides="true"
     inkscape:guide-bbox="true"
     inkscape:snap-bbox="true">
    <sodipodi:guide
       orientation="0,1"
       position="208.09142,1036.4165"
       id="guide3158" />
    <sodipodi:guide
       orientation="0,1"
       position="137.38075,876.81241"
       id="guide3160" />
  </sodipodi:namedview>
  <metadata
     id="metadata7">
    <rdf:RDF>
      <cc:Work
         rdf:about="">
        <dc:format>image/svg+xml</dc:format>
        <dc:type
           rdf:resource="http://purl.org/dc/dcmitype/StillImage" />
        <dc:title></dc:title>
      </cc:Work>
    </rdf:RDF>
  </metadata>
  <g
     inkscape:label="Layer 1"
     inkscape:groupmode="layer"
     id="layer1">
    <g
       id="g3001"
       transform="matrix(0.50911786,0.50911786,-0.50911786,0.50911786,146.73271,-50.23862)">
      <rect
         style="fill:#333333;fill-rule:evenodd;stroke:none"
         id="rect2993"
         width="35.355339"
         height="153.48373"
         x="71.720833"
         y="173.41054" />
      <rect
         style="fill:#333333;fill-rule:evenodd;stroke:none"
         id="rect2991"
         width="35.355339"
         height="119.19801"
         x="71.720833"
         y="138.41054" />
      <rect
         y="104.8391"
         x="71.720833"
         height="153.48373"
         width="35.355339"
         id="rect2985"
         style="fill:#333333;fill-rule:evenodd;stroke:none" />
      <rect
         style="fill:#ffffff;fill-rule:evenodd;stroke:none"
         id="rect2989"
         width="19.192898"
         height="133.27893"
         x="79.802055"
         y="183.60214" />
      <rect
         transform="matrix(0,-1,1,0,0,0)"
         style="fill:#333333;fill-rule:evenodd;stroke:none"
         id="rect2987"
         width="14.142136"
         height="74.751305"
         x="-260.89896"
         y="52.02285" />
      <rect
         style="fill:#333333;fill-rule:evenodd;stroke:none"
         id="rect2997"
         width="8.2124815"
         height="63.431019"
         x="85.292259"
         y="44.705738" />
      <rect
         y="63.349384"
         x="-328.04181"
         height="52.09824"
         width="9.8564215"
         id="rect2999"
         style="fill:#333333;fill-rule:evenodd;stroke:none"
         transform="matrix(0,-1,1,0,0,0)" />
    </g>
    <g
       id="g3111"
       transform="matrix(1.2233346,0,0,1.2233346,137.84193,-214.0378)">
      <path
         sodipodi:type="arc"
         style="fill:#333333;stroke:none"
         id="path3071"
         sodipodi:cx="106.06602"
         sodipodi:cy="228.58278"
         sodipodi:rx="29.294424"
         sodipodi:ry="22.728432"
         d="m 135.36044,228.58278 c 0,12.55257 -13.11556,22.72843 -29.29442,22.72843 -16.178867,0 -29.294427,-10.17586 -29.294427,-22.72843 0,-12.55257 13.11556,-22.72843 29.294427,-22.72843 16.17886,0 29.29442,10.17586 29.29442,22.72843 z"
         transform="matrix(0.23732971,0.11125258,-0.18650747,0.39786731,103.15315,117.8416)" />
      <path
         sodipodi:type="arc"
         style="fill:#333333;stroke:none"
         id="path3069"
         sodipodi:cx="106.06602"
         sodipodi:cy="228.58278"
         sodipodi:rx="29.294424"
         sodipodi:ry="22.728432"
         d="m 135.36044,228.58278 c 0,12.55257 -13.11556,22.72843 -29.29442,22.72843 -16.178867,0 -29.294427,-10.17586 -29.294427,-22.72843 0,-12.55257 13.11556,-22.72843 29.294427,-22.72843 16.17886,0 29.29442,10.17586 29.29442,22.72843 z"
         transform="matrix(0.24992018,0,0,0.29534077,155.25677,148.94585)" />
      <path
         sodipodi:type="arc"
         style="fill:#333333;stroke:none"
         id="path3065"
         sodipodi:cx="106.06602"
         sodipodi:cy="228.58278"
         sodipodi:rx="29.294424"
         sodipodi:ry="22.728432"
         d="m 135.36044,228.58278 c 0,12.55257 -13.11556,22.72843 -29.29442,22.72843 -16.178867,0 -29.294427,-10.17586 -29.294427,-22.72843 0,-12.55257 13.11556,-22.72843 29.294427,-22.72843 16.17886,0 29.29442,10.17586 29.29442,22.72843 z"
         transform="matrix(0.24992018,0,0,0.29534077,134.27462,138.2137)" />
      <path
         transform="matrix(0.20792086,-0.12245145,0.14564671,0.2473061,39.322235,161.39768)"
         d="m 135.36044,228.58278 c 0,12.55257 -13.11556,22.72843 -29.29442,22.72843 -16.178867,0 -29.294427,-10.17586 -29.294427,-22.72843 0,-12.55257 13.11556,-22.72843 29.294427,-22.72843 16.17886,0 29.29442,10.17586 29.29442,22.72843 z"
         sodipodi:ry="22.728432"
         sodipodi:rx="29.294424"
         sodipodi:cy="228.58278"
         sodipodi:cx="106.06602"
         id="path3063"
         style="fill:#333333;stroke:none"
         sodipodi:type="arc" />
      <path
         transform="matrix(0.24992018,0,0,0.29534077,54.899623,168.23156)"
         d="m 135.36044,228.58278 c 0,12.55257 -13.11556,22.72843 -29.29442,22.72843 -16.178867,0 -29.294427,-10.17586 -29.294427,-22.72843 0,-12.55257 13.11556,-22.72843 29.294427,-22.72843 16.17886,0 29.29442,10.17586 29.29442,22.72843 z"
         sodipodi:ry="22.728432"
         sodipodi:rx="29.294424"
         sodipodi:cy="228.58278"
         sodipodi:cx="106.06602"
         id="path3061"
         style="fill:#333333;stroke:none"
         sodipodi:type="arc" />
      <path
         transform="matrix(1.9310345,0,0,1.1777778,-71.477,-36.596329)"
         d="m 135.36044,228.58278 c 0,12.55257 -13.11556,22.72843 -29.29442,22.72843 -16.178867,0 -29.294427,-10.17586 -29.294427,-22.72843 0,-12.55257 13.11556,-22.72843 29.294427,-22.72843 16.17886,0 29.29442,10.17586 29.29442,22.72843 z"
         sodipodi:ry="22.728432"
         sodipodi:rx="29.294424"
         sodipodi:cy="228.58278"
         sodipodi:cx="106.06602"
         id="path3010"
         style="fill:#333333;stroke:none"
         sodipodi:type="arc" />
      <path
         sodipodi:nodetypes="ccccc"
         inkscape:connector-curvature="0"
         id="rect3012"
         d="m 118.48371,247.87721 28.78935,0 c 1.52268,50.48524 0.005,29.98328 3.53553,56.06346 l -36.36549,0 c 6.75875,-28.04488 2.93518,-31.97691 4.04061,-56.06346 z"
         style="fill:#333333;stroke:none" />
      <path
         sodipodi:type="arc"
         style="fill:#333333;stroke:none"
         id="path3015"
         sodipodi:cx="106.06602"
         sodipodi:cy="228.58278"
         sodipodi:rx="29.294424"
         sodipodi:ry="22.728432"
         d="m 135.36044,228.58278 c 0,12.55257 -13.11556,22.72843 -29.29442,22.72843 -16.178867,0 -29.294427,-10.17586 -29.294427,-22.72843 0,-12.55257 13.11556,-22.72843 29.294427,-22.72843 16.17886,0 29.29442,10.17586 29.29442,22.72843 z"
         transform="matrix(0.88256583,0,0,1.1777778,16.515609,-49.601405)" />
      <path
         transform="matrix(0.6509274,0,0,0.7692272,99.298861,43.219873)"
         d="m 135.36044,228.58278 c 0,12.55257 -13.11556,22.72843 -29.29442,22.72843 -16.178867,0 -29.294427,-10.17586 -29.294427,-22.72843 0,-12.55257 13.11556,-22.72843 29.294427,-22.72843 16.17886,0 29.29442,10.17586 29.29442,22.72843 z"
         sodipodi:ry="22.728432"
         sodipodi:rx="29.294424"
         sodipodi:cy="228.58278"
         sodipodi:cx="106.06602"
         id="path3017"
         style="fill:#333333;stroke:none"
         sodipodi:type="arc" />
      <path
         sodipodi:type="arc"
         style="fill:#333333;stroke:none"
         id="path3019"
         sodipodi:cx="106.06602"
         sodipodi:cy="228.58278"
         sodipodi:rx="29.294424"
         sodipodi:ry="22.728432"
         d="m 135.36044,228.58278 c 0,12.55257 -13.11556,22.72843 -29.29442,22.72843 -16.178867,0 -29.294427,-10.17586 -29.294427,-22.72843 0,-12.55257 13.11556,-22.72843 29.294427,-22.72843 16.17886,0 29.29442,10.17586 29.29442,22.72843 z"
         transform="matrix(0.6509274,0,0,0.7692272,73.941718,29.648444)" />
      <path
         transform="matrix(0.6910657,0,0,0.78080088,36.531399,39.275745)"
         d="m 135.36044,228.58278 c 0,12.55257 -13.11556,22.72843 -29.29442,22.72843 -16.178867,0 -29.294427,-10.17586 -29.294427,-22.72843 0,-12.55257 13.11556,-22.72843 29.294427,-22.72843 16.17886,0 29.29442,10.17586 29.29442,22.72843 z"
         sodipodi:ry="22.728432"
         sodipodi:rx="29.294424"
         sodipodi:cy="228.58278"
         sodipodi:cx="106.06602"
         id="path3023"
         style="fill:#ffffff;stroke:none"
         sodipodi:type="arc" />
      <path
         transform="matrix(0.48168549,0,0,0.56922719,91.639996,76.88023)"
         d="m 135.36044,228.58278 c 0,12.55257 -13.11556,22.72843 -29.29442,22.72843 -16.178867,0 -29.294427,-10.17586 -29.294427,-22.72843 0,-12.55257 13.11556,-22.72843 29.294427,-22.72843 16.17886,0 29.29442,10.17586 29.29442,22.72843 z"
         sodipodi:ry="22.728432"
         sodipodi:rx="29.294424"
         sodipodi:cy="228.58278"
         sodipodi:cx="106.06602"
         id="path3025"
         style="fill:#ffffff;stroke:none"
         sodipodi:type="arc" />
      <path
         sodipodi:type="arc"
         style="fill:#ffffff;stroke:none"
         id="path3027"
         sodipodi:cx="106.06602"
         sodipodi:cy="228.58278"
         sodipodi:rx="29.294424"
         sodipodi:ry="22.728432"
         d="m 135.36044,228.58278 c 0,12.55257 -13.11556,22.72843 -29.29442,22.72843 -16.178867,0 -29.294427,-10.17586 -29.294427,-22.72843 0,-12.55257 13.11556,-22.72843 29.294427,-22.72843 16.17886,0 29.29442,10.17586 29.29442,22.72843 z"
         transform="matrix(0.50049014,0,0,0.59144942,113.32149,86.264899)" />
      <path
         sodipodi:type="arc"
         style="fill:#ffffff;stroke:none"
         id="path3029"
         sodipodi:cx="106.06602"
         sodipodi:cy="228.58278"
         sodipodi:rx="29.294424"
         sodipodi:ry="22.728432"
         d="m 135.36044,228.58278 c 0,12.55257 -13.11556,22.72843 -29.29442,22.72843 -16.178867,0 -29.294427,-10.17586 -29.294427,-22.72843 0,-12.55257 13.11556,-22.72843 29.294427,-22.72843 16.17886,0 29.29442,10.17586 29.29442,22.72843 z"
         transform="matrix(0.40840963,0,0,0.48263415,51.124989,121.6407)" />
      <path
         transform="matrix(0.40840963,0,0,0.48263415,87.120647,102.19526)"
         d="m 135.36044,228.58278 c 0,12.55257 -13.11556,22.72843 -29.29442,22.72843 -16.178867,0 -29.294427,-10.17586 -29.294427,-22.72843 0,-12.55257 13.11556,-22.72843 29.294427,-22.72843 16.17886,0 29.29442,10.17586 29.29442,22.72843 z"
         sodipodi:ry="22.728432"
         sodipodi:rx="29.294424"
         sodipodi:cy="228.58278"
         sodipodi:cx="106.06602"
         id="path3031"
         style="fill:#ffffff;stroke:none"
         sodipodi:type="arc" />
      <path
         sodipodi:type="arc"
         style="fill:#ffffff;stroke:none"
         id="path3033"
         sodipodi:cx="106.06602"
         sodipodi:cy="228.58278"
         sodipodi:rx="29.294424"
         sodipodi:ry="22.728432"
         d="m 135.36044,228.58278 c 0,12.55257 -13.11556,22.72843 -29.29442,22.72843 -16.178867,0 -29.294427,-10.17586 -29.294427,-22.72843 0,-12.55257 13.11556,-22.72843 29.294427,-22.72843 16.17886,0 29.29442,10.17586 29.29442,22.72843 z"
         transform="matrix(0.40840963,0,0,0.48263415,112.19588,104.00636)" />
      <path
         transform="matrix(0.40840963,0,0,0.36478302,128.09398,146.34558)"
         d="m 135.36044,228.58278 c 0,12.55257 -13.11556,22.72843 -29.29442,22.72843 -16.178867,0 -29.294427,-10.17586 -29.294427,-22.72843 0,-12.55257 13.11556,-22.72843 29.294427,-22.72843 16.17886,0 29.29442,10.17586 29.29442,22.72843 z"
         sodipodi:ry="22.728432"
         sodipodi:rx="29.294424"
         sodipodi:cy="228.58278"
         sodipodi:cx="106.06602"
         id="path3035"
         style="fill:#ffffff;stroke:none"
         sodipodi:type="arc" />
      <path
         sodipodi:type="arc"
         style="fill:#ffffff;stroke:none"
         id="path3037"
         sodipodi:cx="106.06602"
         sodipodi:cy="228.58278"
         sodipodi:rx="29.294424"
         sodipodi:ry="22.728432"
         d="m 135.36044,228.58278 c 0,12.55257 -13.11556,22.72843 -29.29442,22.72843 -16.178867,0 -29.294427,-10.17586 -29.294427,-22.72843 0,-12.55257 13.11556,-22.72843 29.294427,-22.72843 16.17886,0 29.29442,10.17586 29.29442,22.72843 z"
         transform="matrix(0.91130885,0,0,0.63191225,52.325726,87.088091)" />
      <path
         transform="matrix(0.82510195,0,0,0.57213538,33.690154,103.43403)"
         d="m 135.36044,228.58278 c 0,12.55257 -13.11556,22.72843 -29.29442,22.72843 -16.178867,0 -29.294427,-10.17586 -29.294427,-22.72843 0,-12.55257 13.11556,-22.72843 29.294427,-22.72843 16.17886,0 29.29442,10.17586 29.29442,22.72843 z"
         sodipodi:ry="22.728432"
         sodipodi:rx="29.294424"
         sodipodi:cy="228.58278"
         sodipodi:cx="106.06602"
         id="path3039"
         style="fill:#ffffff;stroke:none"
         sodipodi:type="arc" />
      <path
         transform="matrix(0.40840963,0,0,0.48263415,44.160703,132.53355)"
         d="m 135.36044,228.58278 c 0,12.55257 -13.11556,22.72843 -29.29442,22.72843 -16.178867,0 -29.294427,-10.17586 -29.294427,-22.72843 0,-12.55257 13.11556,-22.72843 29.294427,-22.72843 16.17886,0 29.29442,10.17586 29.29442,22.72843 z"
         sodipodi:ry="22.728432"
         sodipodi:rx="29.294424"
         sodipodi:cy="228.58278"
         sodipodi:cx="106.06602"
         id="path3041"
         style="fill:#333333;stroke:none"
         sodipodi:type="arc" />
      <path
         sodipodi:type="arc"
         style="fill:#333333;stroke:none"
         id="path3043"
         sodipodi:cx="106.06602"
         sodipodi:cy="228.58278"
         sodipodi:rx="29.294424"
         sodipodi:ry="22.728432"
         d="m 135.36044,228.58278 c 0,12.55257 -13.11556,22.72843 -29.29442,22.72843 -16.178867,0 -29.294427,-10.17586 -29.294427,-22.72843 0,-12.55257 13.11556,-22.72843 29.294427,-22.72843 16.17886,0 29.29442,10.17586 29.29442,22.72843 z"
         transform="matrix(0.54861184,0,0,0.48263415,115.54002,132.53355)" />
      <path
         transform="matrix(0.78025027,0,0,0.48263415,32.295021,127.80403)"
         d="m 135.36044,228.58278 c 0,12.55257 -13.11556,22.72843 -29.29442,22.72843 -16.178867,0 -29.294427,-10.17586 -29.294427,-22.72843 0,-12.55257 13.11556,-22.72843 29.294427,-22.72843 16.17886,0 29.29442,10.17586 29.29442,22.72843 z"
         sodipodi:ry="22.728432"
         sodipodi:rx="29.294424"
         sodipodi:cy="228.58278"
         sodipodi:cx="106.06602"
         id="path3045"
         style="fill:#333333;stroke:none"
         sodipodi:type="arc" />
      <path
         sodipodi:type="arc"
         style="fill:#333333;stroke:none"
         id="path3047"
         sodipodi:cx="106.06602"
         sodipodi:cy="228.58278"
         sodipodi:rx="29.294424"
         sodipodi:ry="22.728432"
         d="m 135.36044,228.58278 c 0,12.55257 -13.11556,22.72843 -29.29442,22.72843 -16.178867,0 -29.294427,-10.17586 -29.294427,-22.72843 0,-12.55257 13.11556,-22.72843 29.294427,-22.72843 16.17886,0 29.29442,10.17586 29.29442,22.72843 z"
         transform="matrix(0.94483547,0,0,0.82047407,44.764158,55.487735)" />
      <path
         sodipodi:type="arc"
         style="fill:#333333;stroke:none"
         id="path3049"
         sodipodi:cx="106.06602"
         sodipodi:cy="228.58278"
         sodipodi:rx="29.294424"
         sodipodi:ry="22.728432"
         d="m 135.36044,228.58278 c 0,12.55257 -13.11556,22.72843 -29.29442,22.72843 -16.178867,0 -29.294427,-10.17586 -29.294427,-22.72843 0,-12.55257 13.11556,-22.72843 29.294427,-22.72843 16.17886,0 29.29442,10.17586 29.29442,22.72843 z"
         transform="matrix(0.78025027,0,0,0.48263415,26.328197,139.6764)" />
      <path
         sodipodi:type="arc"
         style="fill:#333333;stroke:none"
         id="path3051"
         sodipodi:cx="106.06602"
         sodipodi:cy="228.58278"
         sodipodi:rx="29.294424"
         sodipodi:ry="22.728432"
         d="m 135.36044,228.58278 c 0,12.55257 -13.11556,22.72843 -29.29442,22.72843 -16.178867,0 -29.294427,-10.17586 -29.294427,-22.72843 0,-12.55257 13.11556,-22.72843 29.294427,-22.72843 16.17886,0 29.29442,10.17586 29.29442,22.72843 z"
         transform="matrix(0.24992018,0,0,0.29534077,72.756762,186.44585)" />
      <path
         transform="matrix(0.24992018,0,0,0.29534077,132.04248,187.16013)"
         d="m 135.36044,228.58278 c 0,12.55257 -13.11556,22.72843 -29.29442,22.72843 -16.178867,0 -29.294427,-10.17586 -29.294427,-22.72843 0,-12.55257 13.11556,-22.72843 29.294427,-22.72843 16.17886,0 29.29442,10.17586 29.29442,22.72843 z"
         sodipodi:ry="22.728432"
         sodipodi:rx="29.294424"
         sodipodi:cy="228.58278"
         sodipodi:cx="106.06602"
         id="path3053"
         style="fill:#333333;stroke:none"
         sodipodi:type="arc" />
      <path
         sodipodi:type="arc"
         style="fill:#333333;stroke:none"
         id="path3055"
         sodipodi:cx="106.06602"
         sodipodi:cy="228.58278"
         sodipodi:rx="29.294424"
         sodipodi:ry="22.728432"
         d="m 135.36044,228.58278 c 0,12.55257 -13.11556,22.72843 -29.29442,22.72843 -16.178867,0 -29.294427,-10.17586 -29.294427,-22.72843 0,-12.55257 13.11556,-22.72843 29.294427,-22.72843 16.17886,0 29.29442,10.17586 29.29442,22.72843 z"
         transform="matrix(0.24992018,0,0,0.29534077,155.25677,180.37442)" />
      <path
         transform="matrix(0.24992018,0,0,0.29534077,140.25677,182.87442)"
         d="m 135.36044,228.58278 c 0,12.55257 -13.11556,22.72843 -29.29442,22.72843 -16.178867,0 -29.294427,-10.17586 -29.294427,-22.72843 0,-12.55257 13.11556,-22.72843 29.294427,-22.72843 16.17886,0 29.29442,10.17586 29.29442,22.72843 z"
         sodipodi:ry="22.728432"
         sodipodi:rx="29.294424"
         sodipodi:cy="228.58278"
         sodipodi:cx="106.06602"
         id="path3057"
         style="fill:#333333;stroke:none"
         sodipodi:type="arc" />
      <path
         sodipodi:type="arc"
         style="fill:#333333;stroke:none"
         id="path3059"
         sodipodi:cx="106.06602"
         sodipodi:cy="228.58278"
         sodipodi:rx="29.294424"
         sodipodi:ry="22.728432"
         d="m 135.36044,228.58278 c 0,12.55257 -13.11556,22.72843 -29.29442,22.72843 -16.178867,0 -29.294427,-10.17586 -29.294427,-22.72843 0,-12.55257 13.11556,-22.72843 29.294427,-22.72843 16.17886,0 29.29442,10.17586 29.29442,22.72843 z"
         transform="matrix(0.24992018,0,0,0.29534077,79.54248,187.87442)" />
      <path
         sodipodi:type="arc"
         style="fill:#333333;stroke:none"
         id="path3067"
         sodipodi:cx="106.06602"
         sodipodi:cy="228.58278"
         sodipodi:rx="29.294424"
         sodipodi:ry="22.728432"
         d="m 135.36044,228.58278 c 0,12.55257 -13.11556,22.72843 -29.29442,22.72843 -16.178867,0 -29.294427,-10.17586 -29.294427,-22.72843 0,-12.55257 13.11556,-22.72843 29.294427,-22.72843 16.17886,0 29.29442,10.17586 29.29442,22.72843 z"
         transform="matrix(0.38980531,0,0,0.32311855,102.28805,154.71752)" />
      <path
         sodipodi:type="arc"
         style="fill:#333333;stroke:none"
         id="path3081"
         sodipodi:cx="106.06602"
         sodipodi:cy="228.58278"
         sodipodi:rx="29.294424"
         sodipodi:ry="22.728432"
         d="m 135.36044,228.58278 c 0,12.55257 -13.11556,22.72843 -29.29442,22.72843 -16.178867,0 -29.294427,-10.17586 -29.294427,-22.72843 0,-12.55257 13.11556,-22.72843 29.294427,-22.72843 16.17886,0 29.29442,10.17586 29.29442,22.72843 z"
         transform="matrix(0.34394347,0,0,0.40645188,74.702143,213.28726)" />
      <path
         inkscape:transform-center-y="4.2931483"
         inkscape:transform-center-x="4.0406102"
         transform="matrix(0.34394347,0,0,0.40645188,83.793516,208.48904)"
         d="m 135.36044,228.58278 c 0,12.55257 -13.11556,22.72843 -29.29442,22.72843 -16.178867,0 -29.294427,-10.17586 -29.294427,-22.72843 0,-12.55257 13.11556,-22.72843 29.294427,-22.72843 16.17886,0 29.29442,10.17586 29.29442,22.72843 z"
         sodipodi:ry="22.728432"
         sodipodi:rx="29.294424"
         sodipodi:cy="228.58278"
         sodipodi:cx="106.06602"
         id="path3083"
         style="fill:#333333;stroke:none"
         sodipodi:type="arc" />
      <path
         sodipodi:type="arc"
         style="fill:#333333;stroke:none"
         id="path3085"
         sodipodi:cx="106.06602"
         sodipodi:cy="228.58278"
         sodipodi:rx="29.294424"
         sodipodi:ry="22.728432"
         d="m 135.36044,228.58278 c 0,12.55257 -13.11556,22.72843 -29.29442,22.72843 -16.178867,0 -29.294427,-10.17586 -29.294427,-22.72843 0,-12.55257 13.11556,-22.72843 29.294427,-22.72843 16.17886,0 29.29442,10.17586 29.29442,22.72843 z"
         transform="matrix(0.34394347,0,0,0.40645188,119.40139,214.54996)"
         inkscape:transform-center-x="4.0406102"
         inkscape:transform-center-y="4.2931483" />
      <path
         inkscape:transform-center-y="4.2931483"
         inkscape:transform-center-x="4.0406102"
         transform="matrix(0.34394347,0,0,0.40645188,112.07778,211.5195)"
         d="m 135.36044,228.58278 c 0,12.55257 -13.11556,22.72843 -29.29442,22.72843 -16.178867,0 -29.294427,-10.17586 -29.294427,-22.72843 0,-12.55257 13.11556,-22.72843 29.294427,-22.72843 16.17886,0 29.29442,10.17586 29.29442,22.72843 z"
         sodipodi:ry="22.728432"
         sodipodi:rx="29.294424"
         sodipodi:cy="228.58278"
         sodipodi:cx="106.06602"
         id="path3087"
         style="fill:#333333;stroke:none"
         sodipodi:type="arc" />
      <path
         sodipodi:type="arc"
         style="fill:#333333;stroke:none"
         id="path3089"
         sodipodi:cx="106.06602"
         sodipodi:cy="228.58278"
         sodipodi:rx="29.294424"
         sodipodi:ry="22.728432"
         d="m 135.36044,228.58278 c 0,12.55257 -13.11556,22.72843 -29.29442,22.72843 -16.178867,0 -29.294427,-10.17586 -29.294427,-22.72843 0,-12.55257 13.11556,-22.72843 29.294427,-22.72843 16.17886,0 29.29442,10.17586 29.29442,22.72843 z"
         transform="matrix(0.55946071,0,0,0.40645188,66.490292,216.31772)"
         inkscape:transform-center-x="6.5724833"
         inkscape:transform-center-y="4.2931483" />
      <path
         inkscape:transform-center-y="4.8782636"
         inkscape:transform-center-x="4.7102125"
         transform="matrix(0.46443645,-0.09092826,0.07062143,0.3607148,78.195871,236.52883)"
         d="m 135.36044,228.58278 c 0,12.55257 -13.11556,22.72843 -29.29442,22.72843 -16.178867,0 -29.294427,-10.17586 -29.294427,-22.72843 0,-12.55257 13.11556,-22.72843 29.294427,-22.72843 16.17886,0 29.29442,10.17586 29.29442,22.72843 z"
         sodipodi:ry="22.728432"
         sodipodi:rx="29.294424"
         sodipodi:cy="228.58278"
         sodipodi:cx="106.06602"
         id="path3091"
         style="fill:#333333;stroke:none"
         sodipodi:type="arc" />
      <path
         transform="matrix(0.2011542,0,0,0.23771204,89.628236,251.71267)"
         d="m 135.36044,228.58278 c 0,12.55257 -13.11556,22.72843 -29.29442,22.72843 -16.178867,0 -29.294427,-10.17586 -29.294427,-22.72843 0,-12.55257 13.11556,-22.72843 29.294427,-22.72843 16.17886,0 29.29442,10.17586 29.29442,22.72843 z"
         sodipodi:ry="22.728432"
         sodipodi:rx="29.294424"
         sodipodi:cy="228.58278"
         sodipodi:cx="106.06602"
         id="path3093"
         style="fill:#ffffff;stroke:none"
         sodipodi:type="arc" />
      <path
         sodipodi:type="arc"
         style="fill:#ffffff;stroke:none"
         id="path3095"
         sodipodi:cx="106.06602"
         sodipodi:cy="228.58278"
         sodipodi:rx="29.294424"
         sodipodi:ry="22.728432"
         d="m 135.36044,228.58278 c 0,12.55257 -13.11556,22.72843 -29.29442,22.72843 -16.178867,0 -29.294427,-10.17586 -29.294427,-22.72843 0,-12.55257 13.11556,-22.72843 29.294427,-22.72843 16.17886,0 29.29442,10.17586 29.29442,22.72843 z"
         transform="matrix(0.19081413,0.10387512,-0.09024246,0.18574105,157.63534,252.77311)" />
      <path
         transform="matrix(0.16602958,-0.03136141,0.0183424,0.09710598,87.779967,290.31053)"
         d="m 135.36044,228.58278 c 0,12.55257 -13.11556,22.72843 -29.29442,22.72843 -16.178867,0 -29.294427,-10.17586 -29.294427,-22.72843 0,-12.55257 13.11556,-22.72843 29.294427,-22.72843 16.17886,0 29.29442,10.17586 29.29442,22.72843 z"
         sodipodi:ry="22.728432"
         sodipodi:rx="29.294424"
         sodipodi:cy="228.58278"
         sodipodi:cx="106.06602"
         id="path3097"
         style="fill:#333333;stroke:none"
         sodipodi:type="arc" />
      <path
         sodipodi:type="arc"
         style="fill:#333333;stroke:none"
         id="path3099"
         sodipodi:cx="106.06602"
         sodipodi:cy="228.58278"
         sodipodi:rx="29.294424"
         sodipodi:ry="22.728432"
         d="m 135.36044,228.58278 c 0,12.55257 -13.11556,22.72843 -29.29442,22.72843 -16.178867,0 -29.294427,-10.17586 -29.294427,-22.72843 0,-12.55257 13.11556,-22.72843 29.294427,-22.72843 16.17886,0 29.29442,10.17586 29.29442,22.72843 z"
         transform="matrix(0.20095004,-0.05712295,0.0222003,0.17687281,86.62277,273.31234)" />
      <path
         transform="matrix(0.16602958,-0.03136141,0.0183424,0.09710598,91.240446,291.41893)"
         d="m 135.36044,228.58278 c 0,12.55257 -13.11556,22.72843 -29.29442,22.72843 -16.178867,0 -29.294427,-10.17586 -29.294427,-22.72843 0,-12.55257 13.11556,-22.72843 29.294427,-22.72843 16.17886,0 29.29442,10.17586 29.29442,22.72843 z"
         sodipodi:ry="22.728432"
         sodipodi:rx="29.294424"
         sodipodi:cy="228.58278"
         sodipodi:cx="106.06602"
         id="path3101"
         style="fill:#333333;stroke:none"
         sodipodi:type="arc" />
      <path
         transform="matrix(0.16197213,0.13194309,-0.13222511,0.11955486,166.20956,266.73956)"
         d="m 135.36044,228.58278 c 0,12.55257 -13.11556,22.72843 -29.29442,22.72843 -16.178867,0 -29.294427,-10.17586 -29.294427,-22.72843 0,-12.55257 13.11556,-22.72843 29.294427,-22.72843 16.17886,0 29.29442,10.17586 29.29442,22.72843 z"
         sodipodi:ry="22.728432"
         sodipodi:rx="29.294424"
         sodipodi:cy="228.58278"
         sodipodi:cx="106.06602"
         id="path3103"
         style="fill:#333333;stroke:none"
         sodipodi:type="arc" />
      <path
         sodipodi:type="arc"
         style="fill:#333333;stroke:none"
         id="path3105"
         sodipodi:cx="106.06602"
         sodipodi:cy="228.58278"
         sodipodi:rx="29.294424"
         sodipodi:ry="22.728432"
         d="m 135.36044,228.58278 c 0,12.55257 -13.11556,22.72843 -29.29442,22.72843 -16.178867,0 -29.294427,-10.17586 -29.294427,-22.72843 0,-12.55257 13.11556,-22.72843 29.294427,-22.72843 16.17886,0 29.29442,10.17586 29.29442,22.72843 z"
         transform="matrix(0.11868884,0.09668437,-0.09689102,0.0876066,168.01283,279.80244)" />
      <path
         transform="matrix(0.24992018,0,0,0.29534077,93.179539,236.36174)"
         d="m 135.36044,228.58278 c 0,12.55257 -13.11556,22.72843 -29.29442,22.72843 -16.178867,0 -29.294427,-10.17586 -29.294427,-22.72843 0,-12.55257 13.11556,-22.72843 29.294427,-22.72843 16.17886,0 29.29442,10.17586 29.29442,22.72843 z"
         sodipodi:ry="22.728432"
         sodipodi:rx="29.294424"
         sodipodi:cy="228.58278"
         sodipodi:cx="106.06602"
         id="path3107"
         style="fill:#333333;stroke:none"
         sodipodi:type="arc" />
      <path
         sodipodi:type="arc"
         style="fill:#333333;stroke:none"
         id="path3109"
         sodipodi:cx="106.06602"
         sodipodi:cy="228.58278"
         sodipodi:rx="29.294424"
         sodipodi:ry="22.728432"
         d="m 135.36044,228.58278 c 0,12.55257 -13.11556,22.72843 -29.29442,22.72843 -16.178867,0 -29.294427,-10.17586 -29.294427,-22.72843 0,-12.55257 13.11556,-22.72843 29.294427,-22.72843 16.17886,0 29.29442,10.17586 29.29442,22.72843 z"
         transform="matrix(0.24992018,0,0,0.29534077,122.97904,237.87697)" />
    </g>
    <path
       style="fill:#333333;stroke:none"
       d="m -646.02097,175.54977 39.39595,120.20815 -79.80205,0 z"
       id="rect3942"
       inkscape:connector-curvature="0"
       sodipodi:nodetypes="cccc" />
    <path
       sodipodi:nodetypes="cccc"
       inkscape:connector-curvature="0"
       id="path3945"
       d="m -380.93657,264.4432 10.26281,31.31473 -20.78877,0 z"
       style="fill:#333333;stroke:none" />
    <path
       style="fill:#333333;stroke:none"
       d="m -334.54834,285.28461 -14.88595,29.39976 -14.69988,-14.69988 z"
       id="path3947"
       inkscape:connector-curvature="0"
       sodipodi:nodetypes="cccc" />
    <path
       sodipodi:nodetypes="cccc"
       inkscape:connector-curvature="0"
       id="path3949"
       d="m -319.07874,322.93475 -27.5915,18.01796 -5.38053,-20.08041 z"
       style="fill:#333333;stroke:none" />
    <path
       style="fill:#333333;stroke:none"
       d="m -448.236,305.21315 32.25076,6.76951 -10.39439,18.00361 z"
       id="path3951"
       inkscape:connector-curvature="0"
       sodipodi:nodetypes="cccc" />
    <path
       sodipodi:nodetypes="cccc"
       inkscape:connector-curvature="0"
       id="path3953"
       d="m -427.07387,282.82519 29.39976,14.88595 -14.69989,14.69989 z"
       style="fill:#333333;stroke:none" />
    <g
       id="g3977"
       transform="translate(-857.14286,-46.467017)">
      <path
         sodipodi:nodetypes="cssssssssc"
         inkscape:connector-curvature="0"
         id="path3172"
         d="m 261.42857,486.6479 c -68.59551,-28.88131 -48.83732,124.83717 8.13972,102.2784 39.37377,-15.58916 79.12047,-115.15042 29.00314,-122.2784 C 240.87587,458.4421 249.715,588.51565 310,592.36218 402.19401,598.24469 394.21251,474.07865 377.14286,470.93361 309.0276,458.38353 338.1994,572.32549 360,589.50504 c 74.13462,58.42034 139.89895,-129.94948 70,-120 -32.57685,4.63702 -42.26918,55.10531 -23.20235,89.39764 9.77089,17.57328 17.08919,35.39014 42.76062,35.91695 40.60202,0.83319 55.43325,-134.58444 10.44173,-99.6003"
         style="fill:none;stroke:#333333;stroke-width:11.19999981;stroke-linecap:butt;stroke-linejoin:miter;stroke-miterlimit:4;stroke-opacity:1;stroke-dasharray:none" />
      <path
         sodipodi:nodetypes="cccc"
         inkscape:connector-curvature="0"
         id="path3955"
         d="m 305.49051,439.1996 10.26281,31.31473 -20.78877,0 z"
         style="fill:#333333;stroke:none" />
      <path
         style="fill:#333333;stroke:none"
         d="m 194.16279,493.59174 32.25076,6.76951 -10.39439,18.00361 z"
         id="path3957"
         inkscape:connector-curvature="0"
         sodipodi:nodetypes="cccc" />
      <path
         style="fill:#333333;stroke:none"
         d="M 472.08689,454.99024 457.20094,484.39 442.50106,469.69012 z"
         id="path3959"
         inkscape:connector-curvature="0"
         sodipodi:nodetypes="cccc" />
      <path
         sodipodi:nodetypes="cccc"
         inkscape:connector-curvature="0"
         id="path3961"
         d="m 517.86107,521.9348 -27.5915,18.01796 -5.38053,-20.08041 z"
         style="fill:#333333;stroke:none" />
      <path
         sodipodi:nodetypes="cccc"
         inkscape:connector-curvature="0"
         id="path3963"
         d="m 419.96747,537.38363 29.39976,14.88595 -14.69989,14.69989 z"
         style="fill:#333333;stroke:none" />
      <path
         style="fill:#333333;stroke:none"
         d="m 395.52008,445.11246 -9.53352,31.5444 -17.03712,-11.91257 z"
         id="path3965"
         inkscape:connector-curvature="0"
         sodipodi:nodetypes="cccc" />
      <path
         style="fill:#333333;stroke:none"
         d="m 281.86125,530.18044 28.48436,16.57042 -15.52984,13.82019 z"
         id="path3967"
         inkscape:connector-curvature="0"
         sodipodi:nodetypes="cccc" />
      <path
         sodipodi:nodetypes="cccc"
         inkscape:connector-curvature="0"
         id="path3969"
         d="m 505.15171,586.22863 -32.84677,-2.65097 8.04251,-19.17005 z"
         style="fill:#333333;stroke:none" />
      <path
         sodipodi:nodetypes="cccc"
         inkscape:connector-curvature="0"
         id="path3971"
         d="m 254.3547,450.72078 29.39976,14.88595 -14.69989,14.69989 z"
         style="fill:#333333;stroke:none" />
      <path
         sodipodi:nodetypes="cccc"
         inkscape:connector-curvature="0"
         id="path3973"
         d="m 369.60225,503.19003 -32.69384,-4.12923 8.89865,-18.78795 z"
         style="fill:#333333;stroke:none" />
      <path
         sodipodi:nodetypes="cccc"
         inkscape:connector-curvature="0"
         id="path3975"
         d="m 304.54572,620.92107 -6.81753,-32.24064 20.66695,2.24728 z"
         style="fill:#333333;stroke:none" />
    </g>
    <g
       id="g3991"
       transform="matrix(0.49306439,0,0,0.49306439,336.84702,-165.60614)">
      <path
         style="fill:none;stroke:#333333;stroke-width:11.19999981;stroke-linecap:butt;stroke-linejoin:miter;stroke-miterlimit:4;stroke-opacity:1;stroke-dasharray:none"
         d="m 261.42857,486.6479 c -68.59551,-28.88131 -48.83732,124.83717 8.13972,102.2784 39.37377,-15.58916 79.12047,-115.15042 29.00314,-122.2784 C 240.87587,458.4421 249.715,588.51565 310,592.36218 402.19401,598.24469 394.21251,474.07865 377.14286,470.93361 309.0276,458.38353 338.1994,572.32549 360,589.50504 c 74.13462,58.42034 139.89895,-129.94948 70,-120 -32.57685,4.63702 -42.26918,55.10531 -23.20235,89.39764 9.77089,17.57328 17.08919,35.39014 42.76062,35.91695 40.60202,0.83319 55.43325,-134.58444 10.44173,-99.6003"
         id="path3993"
         inkscape:connector-curvature="0"
         sodipodi:nodetypes="cssssssssc" />
      <path
         style="fill:#333333;stroke:none"
         d="m 305.49051,439.1996 10.26281,31.31473 -20.78877,0 z"
         id="path3995"
         inkscape:connector-curvature="0"
         sodipodi:nodetypes="cccc" />
      <path
         sodipodi:nodetypes="cccc"
         inkscape:connector-curvature="0"
         id="path3997"
         d="m 194.16279,493.59174 32.25076,6.76951 -10.39439,18.00361 z"
         style="fill:#333333;stroke:none" />
      <path
         sodipodi:nodetypes="cccc"
         inkscape:connector-curvature="0"
         id="path3999"
         d="M 472.08689,454.99024 457.20094,484.39 442.50106,469.69012 z"
         style="fill:#333333;stroke:none" />
      <path
         style="fill:#333333;stroke:none"
         d="m 517.86107,521.9348 -27.5915,18.01796 -5.38053,-20.08041 z"
         id="path4001"
         inkscape:connector-curvature="0"
         sodipodi:nodetypes="cccc" />
      <path
         style="fill:#333333;stroke:none"
         d="m 419.96747,537.38363 29.39976,14.88595 -14.69989,14.69989 z"
         id="path4003"
         inkscape:connector-curvature="0"
         sodipodi:nodetypes="cccc" />
      <path
         sodipodi:nodetypes="cccc"
         inkscape:connector-curvature="0"
         id="path4005"
         d="m 395.52008,445.11246 -9.53352,31.5444 -17.03712,-11.91257 z"
         style="fill:#333333;stroke:none" />
      <path
         sodipodi:nodetypes="cccc"
         inkscape:connector-curvature="0"
         id="path4007"
         d="m 281.86125,530.18044 28.48436,16.57042 -15.52984,13.82019 z"
         style="fill:#333333;stroke:none" />
      <path
         style="fill:#333333;stroke:none"
         d="m 505.15171,586.22863 -32.84677,-2.65097 8.04251,-19.17005 z"
         id="path4009"
         inkscape:connector-curvature="0"
         sodipodi:nodetypes="cccc" />
      <path
         style="fill:#333333;stroke:none"
         d="m 254.3547,450.72078 29.39976,14.88595 -14.69989,14.69989 z"
         id="path4011"
         inkscape:connector-curvature="0"
         sodipodi:nodetypes="cccc" />
      <path
         style="fill:#333333;stroke:none"
         d="m 369.60225,503.19003 -32.69384,-4.12923 8.89865,-18.78795 z"
         id="path4013"
         inkscape:connector-curvature="0"
         sodipodi:nodetypes="cccc" />
      <path
         style="fill:#333333;stroke:none"
         d="m 304.54572,620.92107 -6.81753,-32.24064 20.66695,2.24728 z"
         id="path4015"
         inkscape:connector-curvature="0"
         sodipodi:nodetypes="cccc" />
    </g>
    <path
       style="fill:#333333;stroke:none"
       d="m -65.768976,-778.03423 10.26281,31.31473 -20.78877,0 z"
       id="path4034"
       inkscape:connector-curvature="0"
       sodipodi:nodetypes="cccc" />
    <path
       sodipodi:nodetypes="cccc"
       inkscape:connector-curvature="0"
       id="path4036"
       d="m -19.380746,-757.19282 -14.88595,29.39976 -14.69988,-14.69988 z"
       style="fill:#333333;stroke:none" />
    <path
       style="fill:#333333;stroke:none"
       d="m -3.9111462,-719.54268 -27.5914998,18.01796 -5.38053,-20.08041 z"
       id="path4038"
       inkscape:connector-curvature="0"
       sodipodi:nodetypes="cccc" />
    <path
       sodipodi:nodetypes="cccc"
       inkscape:connector-curvature="0"
       id="path4040"
       d="m -133.06841,-737.26428 32.25076,6.76951 -10.39439,18.00361 z"
       style="fill:#333333;stroke:none" />
    <path
       style="fill:#333333;stroke:none"
       d="m -111.90628,-759.65224 29.399764,14.88595 -14.69989,14.69989 z"
       id="path4042"
       inkscape:connector-curvature="0"
       sodipodi:nodetypes="cccc" />
    <path
       sodipodi:nodetypes="cccc"
       inkscape:connector-curvature="0"
       id="path4044"
       d="m -75.496294,-630.09615 -10.26281,-31.31473 20.78877,0 z"
       style="fill:#333333;stroke:none" />
    <path
       style="fill:#333333;stroke:none"
       d="m -121.88452,-650.93756 14.88595,-29.39976 14.699876,14.69988 z"
       id="path4046"
       inkscape:connector-curvature="0"
       sodipodi:nodetypes="cccc" />
    <path
       style="fill:#333333;stroke:none"
       d="m -8.1968605,-670.8661 -32.2507595,-6.76951 10.39439,-18.00361 z"
       id="path4050"
       inkscape:connector-curvature="0"
       sodipodi:nodetypes="cccc" />
    <path
       sodipodi:nodetypes="cccc"
       inkscape:connector-curvature="0"
       id="path4052"
       d="m -29.35899,-648.47814 -29.399764,-14.88595 14.69989,-14.69989 z"
       style="fill:#333333;stroke:none" />
    <g
       id="g4144"
       transform="matrix(1.8606612,0,0,1.8606612,76.338098,975.04494)">
      <path
         transform="matrix(0.15960219,0,0,0.15960219,-56.49336,-410.55058)"
         d="m -149.50258,-394.17627 c 0,107.11524 -86.83406,193.9493 -193.94929,193.9493 -107.11524,0 -193.9493,-86.83406 -193.9493,-193.9493 0,-107.11524 86.83406,-193.94929 193.9493,-193.94929 107.11523,0 193.94929,86.83405 193.94929,193.94929 z"
         sodipodi:ry="193.9493"
         sodipodi:rx="193.9493"
         sodipodi:cy="-394.17627"
         sodipodi:cx="-343.45187"
         id="path4032"
         style="fill:#333333;stroke:none"
         sodipodi:type="arc" />
      <path
         sodipodi:nodetypes="cccc"
         inkscape:connector-curvature="0"
         id="path4054"
         d="m -77.941662,-502.70097 -6.804729,17.27793 -12.679575,-12.67958 z"
         style="fill:#333333;stroke:none" />
      <path
         style="fill:#333333;stroke:none"
         d="m -134.2112,-515.46153 14.10778,12.03272 -9.98505,6.09326 z"
         id="path4056"
         inkscape:connector-curvature="0"
         sodipodi:nodetypes="cccc" />
      <path
         sodipodi:nodetypes="cccc"
         inkscape:connector-curvature="0"
         id="path4064"
         d="m -121.63974,-429.68337 -4.21836,-32.68246 20.42115,3.89222 z"
         style="fill:#333333;stroke:none" />
      <path
         sodipodi:nodetypes="cccc"
         inkscape:connector-curvature="0"
         id="path4068"
         d="m -155.71799,-465.93021 25.7518,-15.59893 4.60991,23.65731 z"
         style="fill:#333333;stroke:none" />
      <path
         sodipodi:nodetypes="cccc"
         inkscape:connector-curvature="0"
         id="path4072"
         d="m -134.2112,-515.46153 19.64349,12.56843 -19.44933,10.55755 z"
         style="fill:#333333;stroke:none" />
      <path
         sodipodi:nodetypes="cccc"
         inkscape:connector-curvature="0"
         id="path4074"
         d="m -70.585344,-454.78584 -26.370014,4.61136 10.876682,-33.08773 z"
         style="fill:#333333;stroke:none" />
      <path
         style="fill:#333333;stroke:none"
         d="m -121.63974,-429.68337 -4.21836,-32.68246 20.42115,3.89222 z"
         id="path4076"
         inkscape:connector-curvature="0"
         sodipodi:nodetypes="cccc" />
      <path
         style="fill:#ffffff;stroke:none"
         d="m -130.42313,-507.63285 17.49506,10.20865 c -5.48702,0.91542 -10.97404,1.49731 -16.46105,12.13959 z"
         id="path4126"
         inkscape:connector-curvature="0"
         sodipodi:nodetypes="cccc" />
      <path
         style="fill:#ffffff;stroke:none"
         d="m -84.255115,-497.65021 -5.58859,14.86241 c -0.943696,-7.20477 -4.453008,-9.10682 -7.345614,-11.8099 z"
         id="path4128"
         inkscape:connector-curvature="0"
         sodipodi:nodetypes="cccc" />
      <path
         style="fill:#ffffff;stroke:none"
         d="m -147.79221,-467.4596 15.30574,-9.27132 c -1.84585,5.37675 -1.12714,10.11235 2.73993,14.06087 z"
         id="path4130"
         inkscape:connector-curvature="0"
         sodipodi:nodetypes="cccc" />
      <path
         sodipodi:nodetypes="cccc"
         inkscape:connector-curvature="0"
         id="path4132"
         d="m -120.05698,-438.26967 -2.39302,-18.54032 c 3.59047,2.09138 7.52007,2.48717 11.58465,2.208 z"
         style="fill:#ffffff;stroke:none" />
      <path
         style="fill:#ffffff;stroke:none"
         d="m -76.733512,-458.31702 -19.124435,3.34431 c 4.628006,-6.47042 10.960769,-11.63721 7.888139,-23.99635 z"
         id="path4134"
         inkscape:connector-curvature="0"
         sodipodi:nodetypes="cccc" />
      <path
         style="fill:#ffffff;stroke:none"
         d="m -103.28827,-488.44839 4.058052,17.89368 c -4.016102,-5.85198 -7.762362,-11.88251 -19.920012,-9.68684 z"
         id="path4142"
         inkscape:connector-curvature="0"
         sodipodi:nodetypes="cccc" />
    </g>
    <g
       id="g4197"
       transform="matrix(0.6524283,0,0,0.6524283,749.78252,-148.47737)">
      <g
         id="g4190">
        <path
           style="fill:#333333;stroke:none"
           d="m 64.65625,308.875 0,151.53125 245.15625,0 0,-151.53125 -245.15625,0 z m 27.03125,26.84375 191.09375,0 0,97.875 -191.09375,0 0,-97.875 z"
           id="rect4017"
           inkscape:connector-curvature="0" />
        <g
           id="g4025"
           transform="matrix(0.77226271,0,0,0.77226271,43.695407,74.555946)">
          <rect
             transform="matrix(0.8660254,-0.5,0.5,0.8660254,0,0)"
             y="267.52594"
             x="-16.421898"
             height="101.01525"
             width="20.203051"
             id="rect4021"
             style="fill:#333333;stroke:none" />
          <rect
             style="fill:#333333;stroke:none"
             id="rect4023"
             width="20.203051"
             height="101.01525"
             x="318.15176"
             y="81.657883"
             transform="matrix(0.8660254,0.5,-0.5,0.8660254,0,0)" />
        </g>
        <path
           sodipodi:type="arc"
           style="fill:#333333;stroke:none"
           id="path4030"
           sodipodi:cx="205.71428"
           sodipodi:cy="479.50504"
           sodipodi:rx="81.428574"
           sodipodi:ry="27.142857"
           d="m 287.14285,479.50504 c 0,14.99058 -36.45681,27.14285 -81.42857,27.14285 -44.97176,0 -81.42857,-12.15227 -81.42857,-27.14285 0,-14.99059 36.45681,-27.14286 81.42857,-27.14286 44.97176,0 81.42857,12.15227 81.42857,27.14286 z"
           transform="matrix(1,0,0,0.78947368,-18.479904,96.662716)" />
      </g>
      <g
         id="g4160"
         transform="matrix(1.2277995,0,0,1.2277995,327.28505,966.33957)">
        <path
           transform="matrix(0.15960219,0,0,0.15960219,-56.49336,-410.55058)"
           d="m -149.50258,-394.17627 c 0,107.11524 -86.83406,193.9493 -193.94929,193.9493 -107.11524,0 -193.9493,-86.83406 -193.9493,-193.9493 0,-107.11524 86.83406,-193.94929 193.9493,-193.94929 107.11523,0 193.94929,86.83405 193.94929,193.94929 z"
           sodipodi:ry="193.9493"
           sodipodi:rx="193.9493"
           sodipodi:cy="-394.17627"
           sodipodi:cx="-343.45187"
           id="path4162"
           style="fill:#333333;stroke:none"
           sodipodi:type="arc" />
        <path
           sodipodi:nodetypes="cccc"
           inkscape:connector-curvature="0"
           id="path4164"
           d="m -77.941662,-502.70097 -6.804729,17.27793 -12.679575,-12.67958 z"
           style="fill:#333333;stroke:none" />
        <path
           style="fill:#333333;stroke:none"
           d="m -134.2112,-515.46153 14.10778,12.03272 -9.98505,6.09326 z"
           id="path4166"
           inkscape:connector-curvature="0"
           sodipodi:nodetypes="cccc" />
        <path
           sodipodi:nodetypes="cccc"
           inkscape:connector-curvature="0"
           id="path4168"
           d="m -121.63974,-429.68337 -4.21836,-32.68246 20.42115,3.89222 z"
           style="fill:#333333;stroke:none" />
        <path
           sodipodi:nodetypes="cccc"
           inkscape:connector-curvature="0"
           id="path4170"
           d="m -155.71799,-465.93021 25.7518,-15.59893 4.60991,23.65731 z"
           style="fill:#333333;stroke:none" />
        <path
           sodipodi:nodetypes="cccc"
           inkscape:connector-curvature="0"
           id="path4172"
           d="m -134.2112,-515.46153 19.64349,12.56843 -19.44933,10.55755 z"
           style="fill:#333333;stroke:none" />
        <path
           sodipodi:nodetypes="cccc"
           inkscape:connector-curvature="0"
           id="path4174"
           d="m -70.585344,-454.78584 -26.370014,4.61136 10.876682,-33.08773 z"
           style="fill:#333333;stroke:none" />
        <path
           style="fill:#333333;stroke:none"
           d="m -121.63974,-429.68337 -4.21836,-32.68246 20.42115,3.89222 z"
           id="path4176"
           inkscape:connector-curvature="0"
           sodipodi:nodetypes="cccc" />
        <path
           style="fill:#ffffff;stroke:none"
           d="m -130.42313,-507.63285 17.49506,10.20865 c -5.48702,0.91542 -10.97404,1.49731 -16.46105,12.13959 z"
           id="path4178"
           inkscape:connector-curvature="0"
           sodipodi:nodetypes="cccc" />
        <path
           style="fill:#ffffff;stroke:none"
           d="m -84.255115,-497.65021 -5.58859,14.86241 c -0.943696,-7.20477 -4.453008,-9.10682 -7.345614,-11.8099 z"
           id="path4180"
           inkscape:connector-curvature="0"
           sodipodi:nodetypes="cccc" />
        <path
           style="fill:#ffffff;stroke:none"
           d="m -147.79221,-467.4596 15.30574,-9.27132 c -1.84585,5.37675 -1.12714,10.11235 2.73993,14.06087 z"
           id="path4182"
           inkscape:connector-curvature="0"
           sodipodi:nodetypes="cccc" />
        <path
           sodipodi:nodetypes="cccc"
           inkscape:connector-curvature="0"
           id="path4184"
           d="m -120.05698,-438.26967 -2.39302,-18.54032 c 3.59047,2.09138 7.52007,2.48717 11.58465,2.208 z"
           style="fill:#ffffff;stroke:none" />
        <path
           style="fill:#ffffff;stroke:none"
           d="m -76.733512,-458.31702 -19.124435,3.34431 c 4.628006,-6.47042 10.960769,-11.63721 7.888139,-23.99635 z"
           id="path4186"
           inkscape:connector-curvature="0"
           sodipodi:nodetypes="cccc" />
        <path
           style="fill:#ffffff;stroke:none"
           d="m -103.28827,-488.44839 4.058052,17.89368 c -4.016102,-5.85198 -7.762362,-11.88251 -19.920012,-9.68684 z"
           id="path4188"
           inkscape:connector-curvature="0"
           sodipodi:nodetypes="cccc" />
      </g>
    </g>
    <path
       style="fill:#333333;stroke:none"
       d="m 44.446716,434.14883 80.812204,0 c 90.25267,42.54979 255.24806,48.93918 345.47217,0 l 84.85282,0 -42.42641,185.86808 -377.79706,0 z"
       id="rect4220"
       inkscape:connector-curvature="0"
       sodipodi:nodetypes="ccccccc" />
  </g>
</svg>
